<svg viewBox="0 0 20 5" xmlns="http://www.w3.org/2000/svg">
    <rect x="0" y="0" width=".8" height=".8" rx=".1" fill="orangered"/>

    <rect x="0" y="1" width=".8" height=".8" rx=".1" fill="black"/>
    <rect x="1" y="1" width=".8" height=".8" rx=".1" fill="grey"/>
    <rect x="2" y="1" width=".8" height=".8" rx=".1" fill="grey" opacity=".27"/>
    <rect x="3" y="1" width=".8" height=".8" rx=".1" fill="grey" opacity=".27"/>

    <rect x="0" y="2" width=".8" height=".8" rx=".1" fill="black" opacity=".27"/>
    <rect x="1" y="2" width=".8" height=".8" rx=".1" fill="grey" opacity=".27"/>
    <rect x="2" y="2" width=".8" height=".8" rx=".1" fill="grey" opacity=".27"/>

    <rect x="0" y="3" width=".8" height=".8" rx=".1" fill="black" opacity=".27"/>
    <rect x="1" y="3" width=".8" height=".8" rx=".1" fill="grey" opacity=".27"/>

    <rect x="0" y="4" width=".8" height=".8" rx=".1" fill="black" opacity=".27"/>
    <rect x="1" y="4" width=".8" height=".8" rx=".1" fill="grey" opacity=".27"/>
    <rect x="2" y="4" width=".8" height=".8" rx=".1" fill="grey" opacity=".27"/>
    <rect x="3" y="4" width=".8" height=".8" rx=".1" fill="grey" opacity=".27"/>
</svg>